Coordinates
version=1
nRows=12
nColumns=34
inDegrees=yes

Units are S.I. units (second, meters, Newtons, ...)
If the header above contains a line with 'inDegrees', this indicates whether rotational values are in degrees (yes) or radians (no).

endheader
time	pelvis_tilt	pelvis_list	pelvis_rotation	pelvis_tx	pelvis_ty	pelvis_tz	hip_flexion_r	hip_adduction_r	hip_rotation_r	knee_angle_r	ankle_angle_r	subtalar_angle_r	mtp_angle_r	hip_flexion_l	hip_adduction_l	hip_rotation_l	knee_angle_l	ankle_angle_l	subtalar_angle_l	mtp_angle_l	lumbar_extension	lumbar_bending	lumbar_rotation	arm_flex_r	arm_add_r	arm_rot_r	elbow_flex_r	pro_sup_r	arm_flex_l	arm_add_l	arm_rot_l	elbow_flex_l	pro_sup_l
      1.53333330	     -3.49565715	      2.30693202	     -0.20570897	      1.66242636	      0.87131027	     -0.08735151	     -0.50851361	     -6.21262908	      3.02677200	      0.00000000	      1.71015740	    -22.38291127	      0.00000000	     -1.08926615	     -3.14832085	     -1.61509711	      0.00000000	      4.03938237	     -2.74161093	      0.00000000	     -2.35505269	     -0.79544379	      0.02488714	      7.39946190	     -8.75823527	     32.92470603	     87.08916331	     86.10470887	      7.55348051	     -8.93967004	     31.40848906	     82.70647872	     85.47599930
      1.55000000	     -3.49232171	      2.30370119	     -0.20490164	      1.66239378	      0.87015630	     -0.08729833	     -0.50745381	     -6.21398739	      3.02682559	      0.00000000	      1.71003400	    -22.38244394	      0.00000000	     -1.09122214	     -3.14704215	     -1.61458814	      0.00052742	      4.03921213	     -2.74107377	      0.00000000	     -2.35567191	     -0.79531368	      0.02500782	      7.39953070	     -8.75787650	     32.92482297	     87.08904380	     86.10445928	      7.55340213	     -8.93900248	     31.40876327	     82.70629625	     85.47582864
      1.56666670	     -3.50135836	      2.29863723	     -0.20714320	      1.66244533	      0.86969068	     -0.08737105	     -0.50766677	     -6.22860369	      3.02816018	      0.00000000	      1.71105941	    -22.38124958	      0.00000000	     -1.10150413	     -3.15711353	     -1.60935905	      0.00030504	      4.04146490	     -2.73848559	      0.00000000	     -2.35383885	     -0.79397613	      0.02516592	      7.40147677	     -8.75343218	     32.92609642	     87.09124594	     86.10301910	      7.55480067	     -8.93394334	     31.41067332	     82.70698875	     85.47481641
      1.58333330	     -3.50397502	      2.30230901	     -0.20909850	      1.66250318	      0.87031953	     -0.08753473	     -0.50792198	     -6.22770474	      3.02842979	      0.00000000	      1.71153506	    -22.38132966	      0.00000000	     -1.10202916	     -3.15948042	     -1.60821520	      0.00000000	      4.04218115	     -2.73807596	      0.00000000	     -2.35270085	     -0.79380838	      0.02513397	      7.40185256	     -8.75233102	     32.92646496	     87.09202884	     86.10279396	      7.55511817	     -8.93303872	     31.41105505	     82.70729579	     85.47465066
      1.60000000	     -3.51004420	      2.30708314	     -0.21243361	      1.66259175	      0.87152451	     -0.08775331	     -0.50885173	     -6.22539096	      3.02843814	      0.00000000	      1.71228923	    -22.38179733	      0.00000000	     -1.10337229	     -3.16160898	     -1.60692916	      0.00007387	      4.04299313	     -2.73766813	      0.00000000	     -2.35093901	     -0.79369297	      0.02490353	      7.40228622	     -8.75094428	     32.92695293	     87.09318173	     86.10257739	      7.55554054	     -8.93190728	     31.41155013	     82.70779317	     85.47448745
      1.61666670	     -3.49766450	      2.29463884	     -0.28976339	      1.66292267	      0.87242414	     -0.08786192	     -0.53315939	     -6.19883521	      3.04543972	      0.00000000	      1.81098379	    -22.42492455	      0.00000000	     -1.17869637	     -3.16782288	     -1.51005006	      0.00000000	      4.15723526	     -2.68570465	      0.00000000	     -2.20897643	     -0.72841454	      0.03451478	      7.42877959	     -8.59925681	     33.01690016	     87.24739966	     86.06358824	      7.49494101	     -8.77981414	     31.51654976	     82.72985489	     85.44490151
      1.63333330	     -3.50799393	      2.30331981	     -0.30205663	      1.66314271	      0.87292331	     -0.08771915	     -0.53985132	     -6.18451443	      3.04263713	      0.00000000	      1.81252632	    -22.42701683	      0.00000000	     -1.17530567	     -3.16201578	     -1.50965571	      0.00014206	      4.15865032	     -2.68470722	      0.00000000	     -2.21190000	     -0.72727387	      0.03007260	      7.42692872	     -8.60262610	     33.01756759	     87.24918955	     86.06235123	      7.49522583	     -8.77856470	     31.51814703	     82.72927553	     85.44394863
      1.65000000	     -3.52128504	      2.30179138	     -0.37608490	      1.66355526	      0.87359740	     -0.08724178	     -0.52187047	     -6.16157229	      3.01024497	      0.00000000	      1.82193883	    -22.44810301	      0.00000000	     -1.19442378	     -3.16883013	     -1.51881212	      0.00240978	      4.16154821	     -2.67935811	      0.00000000	     -2.22475269	     -0.72634045	     -0.00415296	      7.41348587	     -8.62929402	     33.01955785	     87.26158103	     86.05295987	      7.48720052	     -8.76485360	     31.53419562	     82.72452299	     85.43697998
      1.66666670	     -3.53743774	      2.31916738	     -0.37603034	      1.66392958	      0.87439590	     -0.08648284	     -0.52936722	     -6.14611906	      3.00543837	      0.00000000	      1.82104672	    -22.45058441	      0.00000000	     -1.19927090	     -3.17214828	     -1.52553390	      0.00401415	      4.16102435	     -2.68037262	      0.00000000	     -2.22780536	     -0.72376833	     -0.00759845	      7.41501860	     -8.63675703	     33.01750462	     87.26270283	     86.05094882	      7.48428275	     -8.76190640	     31.53704381	     82.72340005	     85.43557996
      1.68333330	     -3.55467544	      2.33630307	     -0.37873686	      1.66412539	      0.87470214	     -0.08592162	     -0.53920817	     -6.12800508	      2.99773908	      0.00000000	      1.81878292	    -22.45373983	      0.00000000	     -1.20633156	     -3.18023698	     -1.53611781	      0.00799814	      4.15827056	     -2.68225321	      0.00000000	     -2.23244991	     -0.72431069	     -0.01265499	      7.41757275	     -8.64852423	     33.01236267	     87.26111577	     86.04864801	      7.48046596	     -8.75940248	     31.53987237	     82.72150641	     85.43409650
      1.70000000	     -3.55915359	      2.34431196	     -0.38009536	      1.66407847	      0.87422904	     -0.08605290	     -0.54277771	     -6.12235879	      2.99628407	      0.00000000	      1.81823275	    -22.45418959	      0.00000000	     -1.20864740	     -3.18387809	     -1.53821466	      0.00932926	      4.15754507	     -2.68266149	      0.00000000	     -2.23369151	     -0.72478521	     -0.01344203	      7.41814414	     -8.65062171	     33.01124671	     87.26045913	     86.04830891	      7.47989049	     -8.75923585	     31.54019993	     82.72106996	     85.43389190
      1.71666670	     -3.53158006	      2.26916312	     -0.39211044	      1.66422374	      0.87332689	     -0.08652455	     -0.59372509	     -6.00536288	      2.81642775	      0.00000000	      1.76877390	    -22.52907312	      0.00000000	     -1.23699253	     -3.29907275	     -1.80814386	      0.04592057	      4.08336748	     -2.74814080	      0.00000000	     -2.30771640	     -0.79687080	     -0.09506996	      7.49357173	     -8.88279166	     32.87230061	     87.18696166	     86.01100135	      7.41141321	     -8.74223801	     31.57413911	     82.68291925	     85.41229878
